<svg xmlns="http://www.w3.org/2000/svg" xmlns:xlink="http://www.w3.org/1999/xlink" preserveAspectRatio="xMidYMid" width="22.22" height="28.594" viewBox="0 0 22.22 28.594">
  <defs>
    <style>
      .cls-1 {
        fill: #6cad44;
        fill-rule: evenodd;
      }
    </style>
  </defs>
  <path d="M21.860,7.702 C21.622,7.464 21.298,7.306 20.962,7.306 L17.786,7.306 L17.786,6.726 C17.786,3.019 14.742,0.002 11.185,0.002 L11.050,0.002 C7.494,0.002 4.449,3.019 4.449,6.726 L4.449,7.306 L1.274,7.306 C0.573,7.306 0.004,7.924 0.004,8.625 L0.004,27.311 C0.004,28.012 0.573,28.581 1.274,28.581 L20.955,28.581 C21.657,28.581 22.225,28.012 22.226,27.311 L22.232,8.613 C22.232,8.277 22.098,7.941 21.860,7.702 ZM6.989,6.726 C6.989,4.419 8.894,2.543 11.050,2.543 L11.185,2.543 C13.341,2.543 15.245,4.419 15.245,6.726 L15.245,7.306 L6.989,7.306 L6.989,6.726 ZM19.686,26.041 L2.544,26.041 L2.544,9.846 L4.449,9.846 L4.449,12.046 C4.449,12.748 5.018,13.317 5.719,13.317 C6.421,13.317 6.989,12.748 6.989,12.046 L6.989,9.846 L15.245,9.846 L15.245,12.046 C15.245,12.748 15.814,13.317 16.516,13.317 C17.217,13.317 17.786,12.748 17.786,12.046 L17.786,9.846 L19.691,9.846 L19.686,26.041 Z" class="cls-1"/>
</svg>
