<svg xmlns="http://www.w3.org/2000/svg" xmlns:xlink="http://www.w3.org/1999/xlink" preserveAspectRatio="xMidYMid" width="25.04" height="23.406" viewBox="0 0 25.04 23.406">
  <defs>
    <style>
      .cls-1 {
        fill: #6cad44;
        fill-rule: evenodd;
      }
    </style>
  </defs>
  <path d="M12.511,14.716 C16.552,14.716 19.840,11.414 19.840,7.354 C19.840,3.295 16.552,-0.007 12.511,-0.007 C8.470,-0.007 5.182,3.295 5.182,7.354 C5.182,11.414 8.470,14.716 12.511,14.716 ZM12.511,2.171 C15.351,2.171 17.662,4.495 17.662,7.354 C17.662,10.213 15.351,12.538 12.511,12.538 C9.670,12.538 7.360,10.213 7.360,7.354 C7.360,4.495 9.670,2.171 12.511,2.171 ZM15.904,15.437 C15.545,15.322 15.154,15.400 14.867,15.645 L12.511,17.648 L10.154,15.645 C9.868,15.400 9.476,15.322 9.118,15.437 C7.594,15.923 -0.010,18.539 -0.010,22.312 C-0.010,22.913 0.478,23.400 1.079,23.400 L23.942,23.400 C24.544,23.400 25.031,22.913 25.031,22.312 C25.031,18.539 17.428,15.923 15.904,15.437 ZM2.739,21.223 C3.940,19.952 6.812,18.537 9.211,17.701 L11.805,19.907 C12.212,20.253 12.809,20.253 13.216,19.907 L15.810,17.701 C18.210,18.537 21.082,19.952 22.282,21.223 L2.739,21.223 Z" class="cls-1"/>
</svg>
